<?xml version="1.0" encoding="UTF-8"?>
<svg version="1.1" xmlns="http://www.w3.org/2000/svg" width="474" height="162">
<path d="M0 0 C156.42 0 312.84 0 474 0 C474 53.46 474 106.92 474 162 C317.58 162 161.16 162 0 162 C0 108.54 0 55.08 0 0 Z " fill="#FEFEFE" transform="translate(0,0)"/>
<path d="M0 0 C4.06442881 2.19265238 7.73261493 4.73261493 11 8 C11.66 7.175 12.32 6.35 13 5.5 C16.21607669 2.8199361 17.85753574 2.3550684 22.01171875 2.64453125 C26.31087358 3.41314243 29.13106398 5.13106398 32.1875 8.1875 C36.11745562 14.285707 37.65528696 21.17402936 39.125 28.1875 C39.29386719 28.96802734 39.46273437 29.74855469 39.63671875 30.55273438 C40.45737631 34.36200707 41.24905479 38.17630959 42 42 C43.20163148 35.56999323 44.01853277 29.19838279 44.47265625 22.67578125 C44.55080566 21.55872803 44.62895508 20.4416748 44.70947266 19.29077148 C44.86061318 17.02673823 44.99975614 14.76186982 45.12646484 12.49633789 C45.19687988 11.44309326 45.26729492 10.38984863 45.33984375 9.3046875 C45.39519287 8.35577637 45.45054199 7.40686523 45.50756836 6.42919922 C46.07245902 3.64255464 46.74036607 2.68083355 49 1 C52.33299688 0.51053892 55.64362025 0.80076285 59 1 C60.258125 1.061875 61.51625 1.12375 62.8125 1.1875 C66.89503519 2.22814622 68.42883783 3.69422007 71 7 C72.3125 10.3125 72.3125 10.3125 73 13 C74.37529053 12.73064586 75.75020359 12.45936489 77.125 12.1875 C78.04023438 12.00703125 78.95546875 11.8265625 79.8984375 11.640625 C82.03452067 11.19941891 84.16468644 10.72888534 86.2890625 10.234375 C98.41944225 7.4413756 113.50602987 4.03197705 125 10 C126.9375 11.4375 126.9375 11.4375 128 13 C128 14.32 128 15.64 128 17 C128.63164062 16.75765625 129.26328125 16.5153125 129.9140625 16.265625 C144.18949649 10.9174797 158.63197252 6.48773242 174 7 C174 7.66 174 8.32 174 9 C174.66 8.67 175.32 8.34 176 8 C178.05859375 7.83203125 178.05859375 7.83203125 180.4375 7.8125 C181.61119141 7.79123047 181.61119141 7.79123047 182.80859375 7.76953125 C185 8 185 8 188 10 C188.99 10 189.98 10 191 10 C191.7425 9.175 192.485 8.35 193.25 7.5 C196 5 196 5 199.4375 4.4375 C207.47792248 5.70704039 212.11374897 11.95924097 217 18 C217.33 18.66 217.66 19.32 218 20 C218.37125 18.1746875 218.37125 18.1746875 218.75 16.3125 C219.90777289 11.70586844 221.7418208 8.42023849 225.86328125 5.828125 C229.73429451 4.32784198 233.17756774 5.7881665 237 7 C237.67160156 7.20109375 238.34320313 7.4021875 239.03515625 7.609375 C242.12737951 8.89616005 243.61562989 10.13743716 244.9921875 13.2265625 C245.87832959 16.46965984 246.46104724 19.68046297 247 23 C247.1232666 23.71784668 247.2465332 24.43569336 247.37353516 25.17529297 C250.37130886 42.74424293 252.15141859 60.29783767 252.3125 78.125 C252.33014404 79.25824707 252.34778809 80.39149414 252.3659668 81.55908203 C252.36508057 82.61466309 252.36419434 83.67024414 252.36328125 84.7578125 C252.36775269 86.16764404 252.36775269 86.16764404 252.37231445 87.60595703 C251.93019566 90.44885333 251.15892732 91.18651453 249 93 C248.0585702 94.53545874 247.16365136 96.10021774 246.3125 97.6875 C245.87550781 98.49574219 245.43851562 99.30398437 244.98828125 100.13671875 C244.66214844 100.75160156 244.33601563 101.36648437 244 102 C243.67 102 243.34 102 243 102 C243 99.69 243 97.38 243 95 C241.783125 95.12375 240.56625 95.2475 239.3125 95.375 C235.71358848 95.3432075 235.14064711 95.11564318 232.1875 92.6875 C230.20308372 89.89979982 229.49295478 87.27754808 228.74609375 83.9609375 C227.09453564 77.65322982 224.2230051 72.49232556 220.875 66.9375 C220.32457031 66.00228516 219.77414062 65.06707031 219.20703125 64.10351562 C218.19980967 62.39222884 217.18726954 60.68405206 216.16748047 58.98022461 C215.40023111 57.67885289 214.67560935 56.35121869 214 55 C214.01571045 55.91289795 214.0314209 56.8257959 214.04760742 57.76635742 C214.0988697 61.1676201 214.13641439 64.56846963 214.16479492 67.9699707 C214.17984066 69.43943782 214.20028238 70.90886034 214.22631836 72.37817383 C214.26288955 74.4957177 214.27976801 76.61266565 214.29296875 78.73046875 C214.3086792 80.00301514 214.32438965 81.27556152 214.34057617 82.58666992 C213.89850604 87.01719507 212.52806311 89.68045723 209.16796875 92.58203125 C205.0261907 95.15532531 202.01497489 96.98119074 197 96 C193.72757823 94.48965149 191.55906901 93.3950103 190.1796875 89.953125 C189.68577429 87.9913852 189.33257283 85.99543695 189 84 C182.2660903 83.45067966 176.75376218 85.43301907 170.4375 87.625 C169.37063965 87.98529297 168.3037793 88.34558594 167.20458984 88.71679688 C161.36470752 90.72046077 155.73032134 92.91673173 150.125 95.5 C144.80042454 97.88307219 139.81614798 99.40502451 134 98 C131.7265625 96.65234375 131.7265625 96.65234375 130 95 C130 94.01 130 93.02 130 92 C129.34 92 128.68 92 128 92 C125 86.375 125 86.375 125 83 C110.88334447 86.0349811 97.38096299 90.74809987 84.22265625 96.69921875 C79.34488856 98.66806316 75.14758564 99.24904652 70 98 C64.0393102 93.88582823 62.35979382 87.69317357 61.0625 80.9375 C60.66589655 78.62772316 60.32123163 76.32204579 60 74 C59.61328125 74.51949219 59.2265625 75.03898437 58.828125 75.57421875 C57.74596999 77.02334216 56.65844306 78.46846497 55.56640625 79.91015625 C54.40675248 81.45732525 53.2861124 83.03390617 52.1875 84.625 C47.69567107 89.50184284 40.81947176 94.50180803 34.125 95.375 C30.21788417 94.9061461 28.09489224 93.35801313 25 91 C24.71125 91.61875 24.4225 92.2375 24.125 92.875 C23 95 23 95 21 97 C14.44610653 97.98308402 14.44610653 97.98308402 11.31640625 95.85546875 C4.15086463 88.20602042 -1 74.44314451 -1 64 C-3.1552228 64.7851564 -3.1552228 64.7851564 -3.59765625 66.75 C-3.75105469 67.4925 -3.90445313 68.235 -4.0625 69 C-4.23652344 69.81726563 -4.41054687 70.63453125 -4.58984375 71.4765625 C-4.97017976 73.8165345 -5.06098381 76.01066869 -5.125 78.375 C-5.70988847 84.63220311 -9.86058806 89.50731728 -14 94 C-16.88624968 95.8994489 -19.13360498 96.27320741 -22.5625 96.25 C-23.32691406 96.25515625 -24.09132813 96.2603125 -24.87890625 96.265625 C-27 96 -27 96 -30 94 C-33.20825268 93.91690337 -36.34878406 94.00439101 -39.55078125 94.16601562 C-44.57003444 94.30956429 -44.57003444 94.30956429 -46.53881836 92.89208984 C-48.55448504 90.28199515 -49.61255337 87.5605079 -50.84765625 84.50390625 C-51.1050206 83.87395248 -51.36238495 83.24399872 -51.62754822 82.59495544 C-52.44635663 80.58695822 -53.25476571 78.5749742 -54.0625 76.5625 C-54.87586703 74.55449261 -55.69136165 72.54736874 -56.50816345 70.54075623 C-57.24885646 68.71822464 -57.98406786 66.89346813 -58.71899414 65.06860352 C-59.72867451 62.64995047 -60.78525315 60.31984146 -62 58 C-61.99476318 58.59538574 -61.98952637 59.19077148 -61.98413086 59.80419922 C-61.96338001 62.49445547 -61.95034593 65.18469489 -61.9375 67.875 C-61.92912109 68.81214844 -61.92074219 69.74929687 -61.91210938 70.71484375 C-61.90888672 71.61074219 -61.90566406 72.50664063 -61.90234375 73.4296875 C-61.89710693 74.25710449 -61.89187012 75.08452148 -61.88647461 75.93701172 C-62 78 -62 78 -63 80 C-63.66 80 -64.32 80 -65 80 C-64.9175 81.216875 -64.835 82.43375 -64.75 83.6875 C-64.73799604 87.0726174 -64.96086107 87.93868234 -66.875 90.9375 C-69.70596223 93.68519864 -70.6952907 93.95351892 -74.6875 94.5625 C-78.26920025 94.4450672 -80.22142677 93.60186223 -82.875 91.1875 C-87.74517237 84.9890988 -87.44848062 76.81957121 -87.86914062 69.25683594 C-88.04248774 66.26724509 -88.33088567 63.29234252 -88.625 60.3125 C-88.75150586 58.87513174 -88.87723078 57.43769224 -89 56 C-89.66386719 56.32742187 -90.32773438 56.65484375 -91.01171875 56.9921875 C-94.66487912 58.22423374 -98.01055042 58.21959396 -101.8125 58.125 C-102.85180664 58.11146484 -102.85180664 58.11146484 -103.91210938 58.09765625 C-105.60822395 58.07426157 -107.30415871 58.03839641 -109 58 C-108.86142578 58.53874756 -108.72285156 59.07749512 -108.58007812 59.63256836 C-106.40094907 68.64474044 -104.59324269 80.12376138 -108.203125 88.9375 C-111.15517767 92.99284508 -114.36728732 95.51502661 -119.375 96.4375 C-122.39053867 95.93491022 -124.39648019 94.98512315 -126.65234375 92.90234375 C-129.71872972 88.57385109 -130.15402751 83.12810046 -131 78 C-131.13535156 77.23123535 -131.27070313 76.4624707 -131.41015625 75.67041016 C-131.8488411 73.17810713 -132.27210127 70.68378598 -132.6875 68.1875 C-132.81922607 67.39972168 -132.95095215 66.61194336 -133.08666992 65.80029297 C-133.86729416 60.80534919 -134.12105333 56.05541749 -134 51 C-134.60328125 50.82984375 -135.2065625 50.6596875 -135.828125 50.484375 C-136.62734375 50.24203125 -137.4265625 49.9996875 -138.25 49.75 C-139.03890625 49.51796875 -139.8278125 49.2859375 -140.640625 49.046875 C-143.5473479 47.75713703 -145.08484968 46.54767703 -147 44 C-147.3125 41.125 -147.3125 41.125 -147 38 C-146.9175 36.96875 -146.835 35.9375 -146.75 34.875 C-145.86633594 31.48762111 -144.45423387 30.39947409 -142 28 C-141.6546761 24.54676099 -142.44593256 21.10813488 -144 18 C-144.5905955 14.30877814 -144.64212477 11.94805857 -142.5078125 8.796875 C-136.87077964 2.29440556 -136.87077964 2.29440556 -133.0390625 1.69140625 C-121.37956185 1.06881155 -112.460037 8.0006359 -103.63183594 14.83544922 C-102.14098265 15.96409117 -100.57460928 16.99149526 -99 18 C-98.01 17.67 -97.02 17.34 -96 17 C-96.05800781 16.33613281 -96.11601563 15.67226563 -96.17578125 14.98828125 C-96.54784646 7.70643359 -96.54784646 7.70643359 -93.625 3.9375 C-88.74898436 0.33853608 -84.95253762 0.25963462 -79 1 C-58.84856468 6.46327802 -40.61622928 18.48193124 -25 32 C-24.63648438 30.81664063 -24.27296875 29.63328125 -23.8984375 28.4140625 C-17.47084407 7.99522236 -17.47084407 7.99522236 -10.0625 1.375 C-6.19701273 -0.3605249 -4.20522084 -0.71274929 0 0 Z " fill="#4F870A" transform="translate(191,35)"/>
<path d="M0 0 C0.99 0 1.98 0 3 0 C3.21581024 9.79538702 2.96234243 19.12843285 1.4375 28.828125 C1.05387406 31.60941308 0.91576876 34.1993114 1 37 C3.45863991 24.77841133 3.62634937 12.42312413 4 0 C5.7717719 0.06016203 7.54258679 0.14899328 9.3125 0.25 C10.29863281 0.29640625 11.28476563 0.3428125 12.30078125 0.390625 C15 1 15 1 16.78125 2.75 C18.06331629 5.11689161 18.68317112 7.11197199 19.1875 9.75 C19.34605469 10.54921875 19.50460937 11.3484375 19.66796875 12.171875 C19.77753906 12.77515625 19.88710938 13.3784375 20 14 C20.52843506 13.82871582 21.05687012 13.65743164 21.60131836 13.48095703 C24.04537145 12.6914178 26.49140453 11.90818768 28.9375 11.125 C29.76830078 10.85558594 30.59910156 10.58617187 31.45507812 10.30859375 C39.71769856 7.67227128 47.28933959 5.68324871 56 6 C52.82065275 8.11956483 50.4826664 8.78007138 46.79296875 9.69140625 C45.56642578 9.99626953 44.33988281 10.30113281 43.07617188 10.61523438 C42.43736084 10.77080811 41.7985498 10.92638184 41.14038086 11.08666992 C39.20336759 11.55863378 37.26865861 12.04002211 35.33398438 12.52148438 C29.90305785 13.86143534 24.53032191 15.13942617 19 16 C19 16.66 19 17.32 19 18 C19.83732666 17.75403076 20.67465332 17.50806152 21.53735352 17.25463867 C30.28753098 14.71524092 39.07575606 12.43654202 47.9375 10.3125 C49.19884766 10.00505859 50.46019531 9.69761719 51.75976562 9.38085938 C53.5937793 8.9390332 53.5937793 8.9390332 55.46484375 8.48828125 C57.09860962 8.09443237 57.09860962 8.09443237 58.76538086 7.69262695 C67.9721154 5.7211947 67.9721154 5.7211947 71.390625 6.6484375 C73 8 73 8 73.609375 10.1640625 C73.65578125 10.97617187 73.7021875 11.78828125 73.75 12.625 C73.80671875 13.44226562 73.8634375 14.25953125 73.921875 15.1015625 C73.94765625 15.72804688 73.9734375 16.35453125 74 17 C63.96207706 20.20640568 53.92403838 23.38680472 43.78540039 26.26245117 C40.35418446 27.24923131 37.0277679 28.34937889 33.69921875 29.64453125 C30 31 30 31 27 31 C27 33.31 27 35.62 27 38 C27.75337646 37.66790527 27.75337646 37.66790527 28.52197266 37.32910156 C57.78755131 24.50748265 57.78755131 24.50748265 71 26 C71.66 26.33 72.32 26.66 73 27 C73.37125 25.948125 73.7425 24.89625 74.125 23.8125 C77.69381882 17.78784993 84.63086497 16.69021175 91 15 C98.3054523 13.1333495 105.64384667 11.41940835 112.99194336 9.73022461 C116.89030752 8.78387227 120.73609508 7.67958029 124.58105469 6.53686523 C128.38118467 5.6934573 131.22425649 6.10755153 135 7 C137 9 137 9 137.1953125 10.9453125 C137.13020833 12.96354167 137.06510417 14.98177083 137 17 C127.61227195 20.25902694 118.17827928 23.16564974 108.5871582 25.76806641 C106.04404628 26.47235784 103.52087417 27.21992493 101 28 C100.06752441 28.28472168 99.13504883 28.56944336 98.17431641 28.86279297 C95.60875894 29.74562914 93.31397512 30.58183253 91 32 C89.69889182 35.11095637 89.69889182 35.11095637 90 38 C90.9132605 37.6146106 90.9132605 37.6146106 91.8449707 37.22143555 C94.66455666 36.03636125 97.48845601 34.86190901 100.3125 33.6875 C101.74819336 33.08131836 101.74819336 33.08131836 103.21289062 32.46289062 C111.56518274 29.00386056 120.22910138 25.62542942 129.375 25.4375 C130.33148438 25.39496094 131.28796875 25.35242188 132.2734375 25.30859375 C136.34266966 26.3404764 137.56959644 28.64604309 140 32 C140.01401855 31.08504761 140.01401855 31.08504761 140.02832031 30.15161133 C140.08221326 27.37110513 140.16582069 24.59224738 140.25 21.8125 C140.26417969 20.85279297 140.27835938 19.89308594 140.29296875 18.90429688 C140.48493551 13.35645766 140.74774951 9.98848307 145 6 C145.66 5.34 146.32 4.68 147 4 C149.75 3.5625 149.75 3.5625 153 4 C157.47104217 7.25815307 160.28925859 10.45822412 163.25 15.1875 C163.62060547 15.77756836 163.99121094 16.36763672 164.37304688 16.97558594 C169.59786323 25.4126646 174.56103875 34.12207751 179 43 C178.28850174 35.59292865 176.94154959 28.46448061 175.37304688 21.19726562 C172.9564879 9.62787888 172.9564879 9.62787888 175.5625 5.5625 C178 4 178 4 181.75 4.25 C182.8225 4.4975 183.895 4.745 185 5 C185.99 8.96 186.98 12.92 188 17 C188 14.03 188 11.06 188 8 C188.66 8 189.32 8 190 8 C195.66240631 29.47115489 197.74546836 51.82921874 197 74 C196.67 74 196.34 74 196 74 C195.96351218 76.92955824 195.96351218 76.92955824 196.1875 79.5625 C196.125625 80.366875 196.06375 81.17125 196 82 C192.53076119 84.31282587 191.07794425 84.42478586 187 84 C184.03094792 81.76149337 183.47870613 79.64970254 182.734375 76.08984375 C181.0034842 69.25507302 177.78666002 63.61735149 174.25 57.5625 C173.35667969 55.99918945 173.35667969 55.99918945 172.4453125 54.40429688 C170.64460277 51.26085012 168.82581671 48.12893746 167 45 C163.535 39.06 163.535 39.06 160 33 C159.67 48.51 159.34 64.02 159 80 C157.02 80.99 157.02 80.99 155 82 C155 82.66 155 83.32 155 84 C152.23749964 85.38125018 150.05268901 85.19079306 147 85 C145 83 145 83 144.8046875 81.0546875 C144.86979167 79.03645833 144.93489583 77.01822917 145 75 C144.34 75 143.68 75 143 75 C143 73.68 143 72.36 143 71 C127.46553932 74.27372626 112.93944007 78.89750651 98.34130859 85.13623047 C97.03347412 85.68561279 97.03347412 85.68561279 95.69921875 86.24609375 C94.91764404 86.58181396 94.13606934 86.91753418 93.33081055 87.26342773 C90.73807451 88.08277252 88.70380823 88.21378816 86 88 C83.22515762 86.18220738 81.59067841 83.88541665 80 81 C79.73754883 78.40966797 79.73754883 78.40966797 79.83203125 75.7421875 C79.85628174 74.85128418 79.88053223 73.96038086 79.90551758 73.04248047 C79.93669678 72.36846191 79.96787598 71.69444336 80 71 C64.46553932 74.27372626 49.93944007 78.89750651 35.34130859 85.13623047 C34.03347412 85.68561279 34.03347412 85.68561279 32.69921875 86.24609375 C31.91764404 86.58181396 31.13606934 86.91753418 30.33081055 87.26342773 C27.68650544 88.09906914 25.75632357 88.31993041 23 88 C19.30537032 85.68248317 17.34968514 82.33350596 16.25927734 78.17529297 C15.77370011 74.92980662 15.44849927 71.7085639 15.1875 68.4375 C14.97332705 66.22779946 14.75850411 64.01816181 14.54296875 61.80859375 C14.4195813 60.35151001 14.4195813 60.35151001 14.29370117 58.86499023 C13.98784647 55.88144496 13.52187668 52.95274489 13 50 C12.77449463 50.52319824 12.54898926 51.04639648 12.31665039 51.58544922 C0.58897101 78.44476028 0.58897101 78.44476028 -13 84 C-16.5 84.3125 -16.5 84.3125 -19 84 C-19.34933594 83.36191406 -19.69867188 82.72382812 -20.05859375 82.06640625 C-20.51363281 81.24011719 -20.96867188 80.41382812 -21.4375 79.5625 C-21.88996094 78.73878906 -22.34242188 77.91507812 -22.80859375 77.06640625 C-23.83662397 75.07691202 -23.83662397 75.07691202 -25 74 C-25.31237712 71.92185612 -25.56635048 69.834902 -25.796875 67.74609375 C-25.94962401 66.41448512 -26.10296992 65.08294486 -26.25683594 63.75146484 C-26.33703979 63.04769714 -26.41724365 62.34392944 -26.49987793 61.61883545 C-27.7666329 50.57135966 -29.28393567 39.73187029 -31.75 28.875 C-36.31903231 8.63806463 -36.31903231 8.63806463 -33 2 C-26.08238286 1.16511517 -26.08238286 1.16511517 -23.35253906 3.27075195 C-19.47991826 7.82049934 -17.68029401 11.82776152 -16.375 17.625 C-16.17753174 18.43678711 -15.98006348 19.24857422 -15.77661133 20.08496094 C-14.26758036 26.44068703 -12.94932996 32.84108285 -11.6875 39.25 C-11.51589355 40.11834473 -11.34428711 40.98668945 -11.16748047 41.88134766 C-10.27293817 46.67493772 -9.82211083 51.12451902 -10 56 C-9.34 56 -8.68 56 -8 56 C-7.89042969 55.40574219 -7.78085938 54.81148437 -7.66796875 54.19921875 C-6.8003122 49.66342066 -5.81019794 45.24190014 -4.5 40.8125 C-0.8235526 27.51787204 -0.52854261 13.70038078 0 0 Z " fill="#BEFC70" transform="translate(241,41)"/>
<path d="M0 0 C4.72024887 1.20320069 8.42589608 3.75570186 12.1875 6.8125 C13.60384833 9.64519666 13.5338005 12.28716438 13.75 15.4375 C13.83378906 16.62601563 13.91757813 17.81453125 14.00390625 19.0390625 C14.06449219 19.95429687 14.12507812 20.86953125 14.1875 21.8125 C14.8475 21.8125 15.5075 21.8125 16.1875 21.8125 C16.1875 27.0925 16.1875 32.3725 16.1875 37.8125 C17.8375 38.1425 19.4875 38.4725 21.1875 38.8125 C23.98517766 40.61100707 24.21198553 41.9069442 25.0625 45.1875 C25.1875 48.8125 25.1875 48.8125 23.6875 51.1875 C20.92972094 56.01361336 22.91524842 61.46757722 23.96875 66.671875 C24.10651855 67.3630542 24.24428711 68.0542334 24.38623047 68.76635742 C24.66372424 70.13904569 24.95379306 71.50927121 25.25830078 72.8762207 C26.29041036 77.89083252 26.091856 81.83854201 25.1875 86.8125 C24.1875 87.8125 24.1875 87.8125 21.4375 88.375 C18.1875 87.8125 18.1875 87.8125 15.625 84.75 C10.79532783 75.96593606 7.71338515 65.80431776 7.1875 55.8125 C3.8875 55.8125 0.5875 55.8125 -2.8125 55.8125 C-3.29359963 58.33297792 -3.77242603 60.8538537 -4.25 63.375 C-4.38470703 64.07947266 -4.51941406 64.78394531 -4.65820312 65.50976562 C-5.49388642 69.93277231 -6.20875245 74.35180209 -6.8125 78.8125 C-7.4725 78.8125 -8.1325 78.8125 -8.8125 78.8125 C-9.43125 80.2046875 -9.43125 80.2046875 -10.0625 81.625 C-11.78278335 84.75837325 -12.62763427 86.26556522 -15.8125 87.8125 C-18.86901765 87.68774418 -20.94103821 87.42293432 -23.46875 85.65234375 C-26.59393477 81.37338437 -25.28400935 74.82042557 -24.8125 69.8125 C-23.85543514 65.03869272 -22.38014785 60.41746555 -20.8125 55.8125 C-21.9571875 55.626875 -21.9571875 55.626875 -23.125 55.4375 C-25.8125 54.8125 -25.8125 54.8125 -28.8125 52.8125 C-29.51302461 50.149437 -29.58994818 47.57214263 -29.8125 44.8125 C-36.7425 44.3175 -36.7425 44.3175 -43.8125 43.8125 C-42.0490625 46.535 -42.0490625 46.535 -40.25 49.3125 C-33.86097037 59.57467194 -26.59200391 71.27174368 -28.8125 83.8125 C-29.8125 84.8125 -29.8125 84.8125 -31.87890625 84.91015625 C-35.34570312 84.86132812 -35.34570312 84.86132812 -38.8125 84.8125 C-42.59678604 77.45416602 -45.84685693 69.90495699 -49.1015625 62.30078125 C-51.0057494 57.87909572 -52.9282707 53.50391912 -55.125 49.21875 C-56.8125 45.8125 -56.8125 45.8125 -56.8125 43.8125 C-60.2775 44.3075 -60.2775 44.3075 -63.8125 44.8125 C-63.5959375 46.60494141 -63.5959375 46.60494141 -63.375 48.43359375 C-63.18722957 50.03903089 -62.9997449 51.64450148 -62.8125 53.25 C-62.71710938 54.03310547 -62.62171875 54.81621094 -62.5234375 55.62304688 C-61.20926683 67.02817086 -61.20926683 67.02817086 -61.8125 71.8125 C-62.4725 72.4725 -63.1325 73.1325 -63.8125 73.8125 C-64.4725 65.5625 -65.1325 57.3125 -65.8125 48.8125 C-65.6475 51.844375 -65.4825 54.87625 -65.3125 58 C-65.17748467 60.75023755 -65.0512755 63.50067008 -64.92822266 66.25146484 C-64.85712429 67.82492875 -64.78216018 69.39823075 -64.70068359 70.97119141 C-64.61258888 72.75070461 -64.55495178 74.53165519 -64.5 76.3125 C-64.44392578 77.78203125 -64.44392578 77.78203125 -64.38671875 79.28125 C-64.94615951 82.60709965 -66.16432701 83.79392894 -68.8125 85.8125 C-71.5625 85.5625 -71.5625 85.5625 -73.8125 84.8125 C-73.8125 84.1525 -73.8125 83.4925 -73.8125 82.8125 C-74.8025 82.4825 -75.7925 82.1525 -76.8125 81.8125 C-76.91046875 80.66136719 -77.0084375 79.51023437 -77.109375 78.32421875 C-78.18514374 66.59386751 -80.1657087 55.28621181 -82.8125 43.8125 C-83.76125 44.616875 -84.71 45.42125 -85.6875 46.25 C-91.24121502 50.95858447 -96.74643397 50.03069206 -103.8125 49.8125 C-106.19325597 49.58906336 -108.46013592 49.25014913 -110.8125 48.8125 C-110.60753906 49.59753906 -110.40257813 50.38257813 -110.19140625 51.19140625 C-104.74993446 72.41054264 -104.74993446 72.41054264 -108.125 81.25 C-111.01348847 85.63622323 -111.01348847 85.63622323 -112.8125 86.8125 C-115.5 86.5 -115.5 86.5 -117.8125 85.8125 C-117.8125 85.1525 -117.8125 84.4925 -117.8125 83.8125 C-118.4725 83.8125 -119.1325 83.8125 -119.8125 83.8125 C-121.55310657 76.44236407 -122.79706173 69.04715415 -123.9375 61.5625 C-124.11925781 60.40492187 -124.30101562 59.24734375 -124.48828125 58.0546875 C-124.65972656 56.93835938 -124.83117187 55.82203125 -125.0078125 54.671875 C-125.16266113 53.66608398 -125.31750977 52.66029297 -125.47705078 51.62402344 C-125.79172398 48.98663147 -125.87502224 46.46514263 -125.8125 43.8125 C-127.1325 43.1525 -128.4525 42.4925 -129.8125 41.8125 C-128.8225 41.3175 -128.8225 41.3175 -127.8125 40.8125 C-128.36679688 40.54695313 -128.92109375 40.28140625 -129.4921875 40.0078125 C-130.21664062 39.65460938 -130.94109375 39.30140625 -131.6875 38.9375 C-132.76644531 38.41542969 -132.76644531 38.41542969 -133.8671875 37.8828125 C-135.8125 36.8125 -135.8125 36.8125 -137.8125 34.8125 C-138.18212413 31.92943182 -138.2325394 30.42155713 -136.5625 28 C-134.8125 26.8125 -134.8125 26.8125 -130.8125 26.8125 C-131.10125 25.85988281 -131.39 24.90726563 -131.6875 23.92578125 C-132.05875 22.67152344 -132.43 21.41726562 -132.8125 20.125 C-133.18375 18.88363281 -133.555 17.64226563 -133.9375 16.36328125 C-135.05264204 11.83799502 -135.51116834 9.1794598 -133.375 5 C-130.41117848 2.46990846 -128.42520765 1.96542283 -124.54296875 2.21875 C-109.75013616 5.4355033 -97.07468132 17.32306945 -85.8125 26.8125 C-86.06 25.7915625 -86.06 25.7915625 -86.3125 24.75 C-86.88456638 21.38911001 -86.87554567 18.2169662 -86.8125 14.8125 C-86.71612735 11.70864387 -86.71612735 11.70864387 -87.5 8.3125 C-87.8125 4.8125 -87.8125 4.8125 -86.61328125 3.13671875 C-83.58771127 0.91184191 -81.01440758 1.10194128 -77.33984375 1.22265625 C-57.98666553 4.458902 -37.28602376 17.96471169 -23.8125 31.8125 C-22.8225 32.8025 -22.8225 32.8025 -21.8125 33.8125 C-21.8125 35.1325 -21.8125 36.4525 -21.8125 37.8125 C-20.4925 37.4825 -19.1725 37.1525 -17.8125 36.8125 C-17.58175781 35.72453125 -17.35101563 34.6365625 -17.11328125 33.515625 C-10.43671166 3.01505003 -10.43671166 3.01505003 0 0 Z " fill="#BEFC6F" transform="translate(186.8125,39.1875)"/>
<path d="M0 0 C0.33 0 0.66 0 1 0 C1 3.63 1 7.26 1 11 C-0.381875 11.2475 -1.76375 11.495 -3.1875 11.75 C-15.05862212 14.17368743 -26.09507544 18.49997686 -37.30541992 23.00219727 C-38.75331909 23.58118774 -38.75331909 23.58118774 -40.23046875 24.171875 C-41.10082764 24.5234668 -41.97118652 24.87505859 -42.86791992 25.23730469 C-45 26 -45 26 -47 26 C-47.33 23.36 -47.66 20.72 -48 18 C-35.51402925 11.927588 -23.6626161 7.00701059 -9.78564453 5.21386719 C-5.22269275 4.54487496 -2.93104684 3.57587714 0 0 Z " fill="#4A8403" transform="translate(381,78)"/>
<path d="M0 0 C2.1519437 3.22791555 2.20086443 4.28400809 2 8 C1.39591309 8.07404053 0.79182617 8.14808105 0.16943359 8.22436523 C-8.8452986 9.57599282 -16.93625052 12.76392538 -25.375 16.0625 C-27.53093143 16.89807432 -29.68788623 17.7307978 -31.84658813 18.55918884 C-33.17843016 19.07097789 -34.5086046 19.58713591 -35.83676147 20.1084137 C-39.201124 21.40857261 -42.43732025 22.42088476 -46 23 C-46 20.36 -46 17.72 -46 15 C-32.93797256 7.92169463 -19.96880867 3.84148533 -5.38671875 1.578125 C-2.14480118 1.19337224 -2.14480118 1.19337224 0 0 Z " fill="#4B8403" transform="translate(316,81)"/>
<path d="M0 0 C5.12302494 1.49120914 9.46157128 3.74589787 14.0625 6.375 C14.75666016 6.76171875 15.45082031 7.1484375 16.16601562 7.546875 C20.04523723 9.74252179 23.69532973 11.97232938 27 15 C27 15.66 27 16.32 27 17 C9.2616018 17.76142568 9.2616018 17.76142568 3 14 C0.35591183 9.51654615 0 5.12386746 0 0 Z " fill="#528A0D" transform="translate(70,60)"/>
<path d="M0 0 C0.99 0 1.98 0 3 0 C3.81319247 21.35383183 2.29061763 42.52788359 -7 62 C-7.66 62 -8.32 62 -9 62 C-8.67 60.68 -8.34 59.36 -8 58 C-8.66 58 -9.32 58 -10 58 C-10 57.34 -10 56.68 -10 56 C-9.34 56 -8.68 56 -8 56 C-7.89042969 55.40574219 -7.78085938 54.81148437 -7.66796875 54.19921875 C-6.8003122 49.66342066 -5.81019794 45.24190014 -4.5 40.8125 C-0.8235526 27.51787204 -0.52854261 13.70038078 0 0 Z " fill="#97D44B" transform="translate(241,41)"/>
<path d="M0 0 C6.55320583 1.51227827 12.44329 4.01645656 18.4375 7 C19.13552734 7.34417969 19.83355469 7.68835938 20.55273438 8.04296875 C23.84515694 9.71642988 26.48734653 11.30354042 29 14 C17.06637522 13.61934211 17.06637522 13.61934211 12 9 C8.79019864 8.66486406 8.79019864 8.66486406 6 9 C6 9.66 6 10.32 6 11 C5.01 11 4.02 11 3 11 C2.67 8.03 2.34 5.06 2 2 C1.34 2 0.68 2 0 2 C0 1.34 0 0.68 0 0 Z " fill="#4F8908" transform="translate(115,57)"/>
<path d="M0 0 C0.33 1.32 0.66 2.64 1 4 C2.98 4.495 2.98 4.495 5 5 C6.87023184 21.03126924 8.54346026 36.83708944 8 53 C7.67 53 7.34 53 7 53 C6.29867087 46.29980211 5.88955039 39.73742646 6 33 C5.34 33 4.68 33 4 33 C3.32612402 28.62607891 2.66217242 24.25070694 2 19.875 C1.80921875 18.6375 1.6184375 17.4 1.421875 16.125 C1.24140625 14.92617187 1.0609375 13.72734375 0.875 12.4921875 C0.70742188 11.39245605 0.53984375 10.29272461 0.3671875 9.15966797 C0.00856248 6.07368058 -0.06542193 3.10345276 0 0 Z " fill="#B8F569" transform="translate(430,62)"/>
<path d="M0 0 C1.32 0 2.64 0 4 0 C4 0.66 4 1.32 4 2 C4.66 2.33 5.32 2.66 6 3 C1.32284597 4.10343875 -3.35448799 5.20611057 -8.03198242 6.30810547 C-9.6195959 6.68224923 -11.20716202 7.056594 -12.79467773 7.43115234 C-29.02895258 11.26119517 -29.02895258 11.26119517 -37 13 C-37 12.34 -37 11.68 -37 11 C-28.81319026 8.57377658 -20.59103016 6.33912202 -12.3125 4.25 C-11.43948242 4.02739502 -10.56646484 3.80479004 -9.66699219 3.57543945 C-8.84489258 3.37007568 -8.02279297 3.16471191 -7.17578125 2.953125 C-6.07617065 2.67710449 -6.07617065 2.67710449 -4.9543457 2.39550781 C-3 2 -3 2 0 2 C0 1.34 0 0.68 0 0 Z " fill="#57910F" transform="translate(297,46)"/>
<path d="M0 0 C-3.00281284 2.00187522 -4.87290772 2.58532135 -8.33984375 3.3671875 C-9.93602539 3.73650391 -9.93602539 3.73650391 -11.56445312 4.11328125 C-12.67755859 4.36464844 -13.79066406 4.61601563 -14.9375 4.875 C-22.56480754 6.59832472 -29.96808106 8.52982437 -37.34594727 11.13720703 C-39.88734563 11.96337775 -42.37139348 12.53278476 -45 13 C-41.61540096 10.12692726 -37.93059316 8.58427349 -33.8125 7.0625 C-33.11705078 6.80452637 -32.42160156 6.54655273 -31.70507812 6.28076172 C-26.53969386 4.4262549 -21.33424001 2.91122433 -16 1.625 C-15.3191333 1.45750244 -14.6382666 1.29000488 -13.93676758 1.11743164 C-9.17300001 0.03716343 -4.84738828 -0.14066082 0 0 Z " fill="#A0DD53" transform="translate(361,47)"/>
<path d="M0 0 C0 0.66 0 1.32 0 2 C0.99 2.33 1.98 2.66 3 3 C1.69675781 3.38091797 1.69675781 3.38091797 0.3671875 3.76953125 C-0.78523438 4.11371094 -1.93765625 4.45789063 -3.125 4.8125 C-4.26195312 5.14894531 -5.39890625 5.48539062 -6.5703125 5.83203125 C-10.04513125 6.92207187 -10.04513125 6.92207187 -13.28125 8.6875 C-16 10 -16 10 -18.375 9.1875 C-18.91125 8.795625 -19.4475 8.40375 -20 8 C-16.84007186 4.30435922 -14.07760374 3.08026865 -9.4375 1.75 C-8.30183594 1.41484375 -7.16617187 1.0796875 -5.99609375 0.734375 C-3 0 -3 0 0 0 Z " fill="#B2EF64" transform="translate(292,84)"/>
<path d="M0 0 C0.99 0 1.98 0 3 0 C3.09471858 9.0719352 3.14516104 17.98185679 2 27 C1.01 26.67 0.02 26.34 -1 26 C-0.67 17.42 -0.34 8.84 0 0 Z " fill="#B2EF64" transform="translate(241,41)"/>
<path d="M0 0 C-3.19968763 2.13312509 -5.56033875 2.78365166 -9.27734375 3.69140625 C-10.51291016 3.99626953 -11.74847656 4.30113281 -13.02148438 4.61523438 C-14.3267886 4.93113141 -15.6321275 5.24688519 -16.9375 5.5625 C-18.23906576 5.88161757 -19.5404997 6.20127331 -20.84179688 6.52148438 C-23.23494483 7.10885941 -25.62868697 7.69382233 -28.02319336 8.27563477 C-30.3510311 8.84208228 -32.67672656 9.41519189 -35 10 C-35.33 9.34 -35.66 8.68 -36 8 C-33.0229423 7.03503207 -30.04299559 6.07929122 -27.0625 5.125 C-26.23169922 4.85558594 -25.40089844 4.58617187 -24.54492188 4.30859375 C-16.28230144 1.67227128 -8.71066041 -0.31675129 0 0 Z " fill="#A5E258" transform="translate(297,47)"/>
<path d="M0 0 C-0.56640625 1.83203125 -0.56640625 1.83203125 -2 4 C-5.15234375 5.44921875 -5.15234375 5.44921875 -8.9375 6.6875 C-10.18402344 7.10386719 -11.43054688 7.52023438 -12.71484375 7.94921875 C-14.34099609 8.46935547 -14.34099609 8.46935547 -16 9 C-16.99 9.33 -17.98 9.66 -19 10 C-19.33 8.68 -19.66 7.36 -20 6 C-3.43206854 -1.71603427 -3.43206854 -1.71603427 0 0 Z " fill="#8DC941" transform="translate(357,84)"/>
<path d="M0 0 C0.33 0 0.66 0 1 0 C1.02505615 0.68102783 1.0501123 1.36205566 1.07592773 2.0637207 C1.19190952 5.14683755 1.31462616 8.22965046 1.4375 11.3125 C1.47681641 12.38435547 1.51613281 13.45621094 1.55664062 14.56054688 C1.59853516 15.58857422 1.64042969 16.61660156 1.68359375 17.67578125 C1.72025146 18.62364502 1.75690918 19.57150879 1.79467773 20.5480957 C1.91430187 23.136171 1.91430187 23.136171 3 26 C3.06937062 28.22818441 3.08457084 30.45834524 3.0625 32.6875 C3.05347656 33.86699219 3.04445313 35.04648438 3.03515625 36.26171875 C3.02355469 37.16535156 3.01195312 38.06898437 3 39 C2.01 38.67 1.02 38.34 0 38 C-1.18784403 25.2443826 -0.77881471 12.77185492 0 0 Z " fill="#9BD74E" transform="translate(382,52)"/>
<path d="M0 0 C0.66 0.33 1.32 0.66 2 1 C3.14242743 5.68395246 3.08252495 10.21355271 3 15 C1.02 15 -0.96 15 -3 15 C-2.5547115 9.72684667 -1.91626837 4.98229776 0 0 Z " fill="#528B0A" transform="translate(187,63)"/>
<path d="M0 0 C0.66 0 1.32 0 2 0 C3.52550178 4.96040646 2.48471946 9.34036362 1.5625 14.3125 C1.41490234 15.14845703 1.26730469 15.98441406 1.11523438 16.84570312 C0.75158098 18.89858521 0.3768822 20.94950532 0 23 C-0.66 23 -1.32 23 -2 23 C-3.78549412 15.04643528 -1.79211893 7.77597367 0 0 Z " fill="#A2DE55" transform="translate(180,95)"/>
<path d="M0 0 C0.33 1.32 0.66 2.64 1 4 C2.98 4.495 2.98 4.495 5 5 C5 6.98 5 8.96 5 11 C4.67 11 4.34 11 4 11 C4.0721875 11.75023438 4.144375 12.50046875 4.21875 13.2734375 C4.81718868 19.87288627 5.13192217 26.37457568 5 33 C4.67 33 4.34 33 4 33 C3.32612402 28.62607891 2.66217242 24.25070694 2 19.875 C1.80921875 18.6375 1.6184375 17.4 1.421875 16.125 C1.24140625 14.92617187 1.0609375 13.72734375 0.875 12.4921875 C0.70742188 11.39245605 0.53984375 10.29272461 0.3671875 9.15966797 C0.00856248 6.07368058 -0.06542193 3.10345276 0 0 Z " fill="#90CC44" transform="translate(430,62)"/>
<path d="M0 0 C0.66 0 1.32 0 2 0 C2.50377768 2.26999825 3.00290019 4.54103003 3.5 6.8125 C3.7784375 8.07707031 4.056875 9.34164062 4.34375 10.64453125 C5 14 5 14 5 17 C4.01 17 3.02 17 2 17 C0.14868517 13.07142246 -0.22004943 10.01224888 -0.125 5.6875 C-0.10695313 4.61886719 -0.08890625 3.55023438 -0.0703125 2.44921875 C-0.04710937 1.64097656 -0.02390625 0.83273438 0 0 Z " fill="#B5F367" transform="translate(429,49)"/>
<path d="M0 0 C2.95980532 0.08670137 5.91646869 0.19353023 8.875 0.3125 C9.71675781 0.33505859 10.55851562 0.35761719 11.42578125 0.38085938 C12.23144531 0.41630859 13.03710938 0.45175781 13.8671875 0.48828125 C14.61081543 0.51446533 15.35444336 0.54064941 16.12060547 0.56762695 C18 1 18 1 20 4 C6.3667426 4.18451025 6.3667426 4.18451025 0 3 C0 2.01 0 1.02 0 0 Z " fill="#95D249" transform="translate(76,85)"/>
<path d="M0 0 C0.66 0.99 1.32 1.98 2 3 C0.4252706 3.72726052 -1.16024279 4.43120422 -2.75 5.125 C-3.63171875 5.51945312 -4.5134375 5.91390625 -5.421875 6.3203125 C-8 7 -8 7 -12 5 C-8.04 3.35 -4.08 1.7 0 0 Z " fill="#95D249" transform="translate(342,121)"/>
<path d="M0 0 C-2.7879481 1.19696701 -5.57974417 2.38283014 -8.375 3.5625 C-9.56609375 4.07586914 -9.56609375 4.07586914 -10.78125 4.59960938 C-11.92207031 5.07817383 -11.92207031 5.07817383 -13.0859375 5.56640625 C-13.7876709 5.86490479 -14.4894043 6.16340332 -15.21240234 6.47094727 C-17 7 -17 7 -19 6 C-16.37617868 2.73896493 -13.43435992 1.93739691 -9.5 0.75 C-8.3553125 0.39421875 -7.210625 0.0384375 -6.03125 -0.328125 C-3 -1 -3 -1 0 0 Z " fill="#6BA622" transform="translate(292,85)"/>
<path d="M0 0 C1.32 0 2.64 0 4 0 C4 0.66 4 1.32 4 2 C4.66 2.33 5.32 2.66 6 3 C4.23243706 3.39012425 2.46075217 3.7616098 0.6875 4.125 C-0.29863281 4.33382812 -1.28476562 4.54265625 -2.30078125 4.7578125 C-5 5 -5 5 -8 3 C-5.36 2.67 -2.72 2.34 0 2 C0 1.34 0 0.68 0 0 Z " fill="#659F1C" transform="translate(297,46)"/>
<path d="M0 0 C0 0.66 0 1.32 0 2 C-4.1205746 3.99785435 -7.45194365 4.17835515 -12 4 C-9.94577945 1.94577945 -8.66990976 1.31862408 -6 0.3125 C-5.29875 0.04050781 -4.5975 -0.23148437 -3.875 -0.51171875 C-2 -1 -2 -1 0 0 Z " fill="#90CC44" transform="translate(279,123)"/>
<path d="M0 0 C0 0.33 0 0.66 0 1 C-9.41002278 3.29612756 -9.41002278 3.29612756 -14 3 C-13 1 -13 1 -9.8125 -0.1875 C-6.03923017 -0.99163947 -3.70527523 -0.90372567 0 0 Z " fill="#5D9714" transform="translate(346,53)"/>
<path d="M0 0 C-1 2 -1 2 -4.25 3.125 C-7.37700635 3.85463482 -9.82622905 4.19234975 -13 4 C-12 2 -12 2 -8.75 0.875 C-5.62299365 0.14536518 -3.17377095 -0.19234975 0 0 Z " fill="#ADEB60" transform="translate(345,50)"/>
<path d="M0 0 C0.33 0 0.66 0 1 0 C1.14285714 7.42857143 1.14285714 7.42857143 0 11 C-0.66 11 -1.32 11 -2 11 C-2.28571429 3.57142857 -2.28571429 3.57142857 0 0 Z " fill="#BBF96C" transform="translate(241,66)"/>
<path d="M0 0 C0.66 0.33 1.32 0.66 2 1 C1.3125 2.9375 1.3125 2.9375 0 5 C-2.625 5.75 -2.625 5.75 -5 6 C-5 4.68 -5 3.36 -5 2 C-2.625 0.9375 -2.625 0.9375 0 0 Z " fill="#A1DE54" transform="translate(355,83)"/>
<path d="M0 0 C0.33 0 0.66 0 1 0 C1 2.31 1 4.62 1 7 C0.01 7.33 -0.98 7.66 -2 8 C-2.125 5.125 -2.125 5.125 -2 2 C-1.34 1.34 -0.68 0.68 0 0 Z " fill="#81BD36" transform="translate(202,54)"/>
<path d="M0 0 C0.33 0 0.66 0 1 0 C1.33 3.3 1.66 6.6 2 10 C1.34 10 0.68 10 0 10 C-0.95024979 6.30458414 -0.95024979 3.69541586 0 0 Z " fill="#8FCB43" transform="translate(67,113)"/>
</svg>
