<?xml version="1.0" encoding="UTF-8"?>
<svg version="1.1" xmlns="http://www.w3.org/2000/svg" width="500" height="225">
<path d="M0 0 C165 0 330 0 500 0 C500 74.25 500 148.5 500 225 C335 225 170 225 0 225 C0 150.75 0 76.5 0 0 Z " fill="#000000" transform="translate(0,0)"/>
<path d="M0 0 C9.07006369 4.14012739 9.07006369 4.14012739 11 8 C11.928125 6.7625 11.928125 6.7625 12.875 5.5 C15.42085078 2.95414922 17.37102234 2.56122396 20.9375 2.4375 C25.68590871 2.71225955 28.44278404 3.6909619 32 7 C37.20191176 13.3737991 38.62806375 20.53274081 40.25 28.4375 C40.75241055 30.79096358 41.25746852 33.14386413 41.765625 35.49609375 C41.97993164 36.52919678 42.19423828 37.5622998 42.41503906 38.62670898 C42.76834138 40.94078763 42.76834138 40.94078763 44 42 C45.90649913 31.98073862 46.60007748 21.93262981 47.21435547 11.76416016 C47.28799316 10.66249512 47.36163086 9.56083008 47.4375 8.42578125 C47.49808594 7.42973877 47.55867187 6.43369629 47.62109375 5.4074707 C48 3 48 3 50 1 C56.6841605 0.29091589 64.75512639 0.20240269 71 3 C73.94381603 6.3967108 75.37695406 9.86158417 77 14 C77.88353149 13.73521851 77.88353149 13.73521851 78.78491211 13.46508789 C81.50014826 12.65628848 84.21873364 11.85934836 86.9375 11.0625 C87.86369141 10.78470703 88.78988281 10.50691406 89.74414062 10.22070312 C100.934562 6.9617383 117.7940097 3.67041992 128.875 8.625 C132.22574734 11.17156798 133.57182566 13.07252057 135 17 C135.63164062 16.75765625 136.26328125 16.5153125 136.9140625 16.265625 C152.03054551 10.60238929 166.81475879 6.93238639 183 6.6875 C184.05924683 6.66091309 184.05924683 6.66091309 185.13989258 6.63378906 C189.87457071 6.64056337 192.89525105 7.73880835 197 10 C197.99 10 198.98 10 200 10 C200.804375 8.7625 200.804375 8.7625 201.625 7.5 C204.21122609 4.77765675 204.69117699 4.5387482 208.25 4.3125 C213.82504513 4.6774784 217.18582009 7.05120198 221 11 C223.83701463 14.55862463 226.43391649 18.24366329 229 22 C229.33 22.33 229.66 22.66 230 23 C229.9071875 22.28714844 229.814375 21.57429688 229.71875 20.83984375 C229.14821668 13.27008913 229.14821668 13.27008913 231.53515625 9.7109375 C234.78470379 6.66800859 237.15877026 5.16234258 241.5625 4.3125 C245.86627001 5.173254 248.33193551 6.57769326 252 9 C253.02867187 9.53367187 253.02867187 9.53367187 254.078125 10.078125 C257.14883712 13.14883712 257.36144583 16.75409033 258.0625 20.9375 C258.22532471 21.84975342 258.38814941 22.76200684 258.5559082 23.7019043 C262.50546539 46.91014418 264.26201323 70.47703405 264 94 C262.515 94.495 262.515 94.495 261 95 C260.27566653 96.97984481 259.62256028 98.98583438 259 101 C257.74168512 103.70610575 256.38263387 106.35554494 255 109 C254.67 109 254.34 109 254 109 C254 105.7 254 102.4 254 99 C253.13375 99.268125 252.2675 99.53625 251.375 99.8125 C248 100 248 100 244.8125 97.9375 C241.11707031 94.4258744 239.18017223 90.87379117 238.6875 85.75 C237.88285622 81.36103393 236.20192821 78.70151004 233.83203125 74.9765625 C230.25057996 69.1576587 227.1845117 63.042264 224 57 C224.02094727 57.96824707 224.04189453 58.93649414 224.06347656 59.93408203 C224.13618512 63.54574645 224.18191056 67.15734691 224.21972656 70.76953125 C224.23977222 72.32921244 224.26701657 73.88881913 224.30175781 75.44824219 C224.35059126 77.69745314 224.37303815 79.9456659 224.390625 82.1953125 C224.41127014 82.8861795 224.43191528 83.57704651 224.45318604 84.28884888 C224.45549122 89.32636763 223.11501837 92.10156602 220 96 C216.77718821 98.80963079 213.65105284 99.90862416 209.4375 100.5 C205.08279359 99.86658816 202.11710664 98.11710664 199 95 C198.76807135 93.48530552 198.58784762 91.96245438 198.4375 90.4375 C198.31181641 89.19806641 198.31181641 89.19806641 198.18359375 87.93359375 C198.12300781 87.29550781 198.06242187 86.65742188 198 86 C184.05094495 89.56707369 170.83794631 93.56419225 157.69921875 99.48828125 C151.85348155 102.0726358 147.41644709 104.01312322 141 103 C136.34263975 100.40054312 133.12526696 95.85646111 131 91 C130.96366581 89.33372943 130.95964631 87.66617807 131 86 C117.05748739 89.73483714 103.62406087 94.02568581 90.37719727 99.79833984 C84.62505294 102.23835702 80.26683246 103.74520658 74 103 C71.3125 101 71.3125 101 69 98 C68.54496094 97.43023437 68.08992187 96.86046875 67.62109375 96.2734375 C63.66855776 90.80069536 63.13433407 85.64343039 63 79 C62.34 79 61.68 79 61 79 C59.65632361 80.55467281 59.65632361 80.55467281 58.3125 82.5625 C52.7149513 90.19674715 47.07219098 95.71825889 38 99 C33.93724375 99.52422661 32.04314133 99.64193313 28.5625 97.5 C28.046875 97.005 27.53125 96.51 27 96 C26.360625 96.825 25.72125 97.65 25.0625 98.5 C21.45956148 101.4411743 19.75209519 101.58535044 15.28125 101.6640625 C10.91241902 100.39231376 8.60215655 97.00453882 6.33984375 93.23046875 C2.39579165 84.67220529 0.00413582 76.18365765 -2 67 C-2.99 67.495 -2.99 67.495 -4 68 C-4.51283046 69.9805908 -4.51283046 69.9805908 -4.74609375 72.3671875 C-4.86146484 73.25277344 -4.97683594 74.13835937 -5.09570312 75.05078125 C-5.32257975 76.92543037 -5.54656415 78.80043191 -5.76757812 80.67578125 C-5.88423828 81.56394531 -6.00089844 82.45210938 -6.12109375 83.3671875 C-6.2183374 84.18300293 -6.31558105 84.99881836 -6.41577148 85.83935547 C-7.10136097 88.37486194 -7.93455679 89.40763996 -10 91 C-10.66 91 -11.32 91 -12 91 C-12.0825 91.5775 -12.165 92.155 -12.25 92.75 C-13.41697913 96.25093738 -15.73186425 98.36593212 -19 100 C-20.64255791 100.12114921 -22.29052478 100.17540767 -23.9375 100.1875 C-24.81277344 100.20167969 -25.68804687 100.21585937 -26.58984375 100.23046875 C-29 100 -29 100 -32 98 C-34.72259754 97.88286831 -37.34628543 97.85824705 -40.0625 97.9375 C-47.75944584 98.12027708 -47.75944584 98.12027708 -50 97 C-51.14334457 94.62186592 -52.18499539 92.26137508 -53.1875 89.82421875 C-53.49067139 89.10265091 -53.79384277 88.38108307 -54.10620117 87.63764954 C-55.07710817 85.32351396 -56.03882712 83.00569344 -57 80.6875 C-57.96298284 78.38081459 -58.92783215 76.07492283 -59.89379883 73.76948547 C-60.49473799 72.33352154 -61.09361883 70.89669403 -61.69018555 69.45890808 C-63.02687916 66.24931371 -64.38430701 63.08016105 -66 60 C-65.90460938 61.22976562 -65.80921875 62.45953125 -65.7109375 63.7265625 C-65.59833271 65.35933197 -65.48638842 66.99214709 -65.375 68.625 C-65.31054688 69.43324219 -65.24609375 70.24148437 -65.1796875 71.07421875 C-64.86726108 75.87777492 -65.07979887 79.47067061 -67 84 C-67.66 84 -68.32 84 -69 84 C-68.9175 85.216875 -68.835 86.43375 -68.75 87.6875 C-68.75 90.97607044 -68.96424484 91.94125938 -70.75 94.875 C-74.15016284 98.0862649 -75.62157074 99 -80.375 99 C-84.87345322 97.75904739 -87.24671098 95.71416842 -90 92 C-91.0419834 88.87404979 -91.2425622 86.34461601 -91.4375 83.0625 C-91.82237057 77.50670714 -92.56817281 72.12678972 -93.59765625 66.65625 C-93.99116255 64.05834433 -94.07127058 61.62275741 -94 59 C-95.051875 59.33 -96.10375 59.66 -97.1875 60 C-103.05298373 61.50071836 -108.99092943 61.16488303 -115 61 C-114.855625 61.51304688 -114.71125 62.02609375 -114.5625 62.5546875 C-112.33614367 71.73840735 -110.1467929 85.39365998 -115.1875 93.9375 C-118.26193871 97.728732 -121.10785602 99.72406234 -126 100.4375 C-129.89958663 99.86881028 -131.32309075 98.89395595 -134 96 C-137.72154436 88.18278777 -138.47955138 79.60877441 -139.6875 71.125 C-139.91393387 69.58842657 -140.14114095 68.05196687 -140.36914062 66.515625 C-142 55.42578125 -142 55.42578125 -142 53 C-142.86625 52.7525 -143.7325 52.505 -144.625 52.25 C-151.27935223 49.7854251 -151.27935223 49.7854251 -154 47 C-154.9896378 41.28709089 -155.34271436 36.04147387 -152.0859375 31.08984375 C-151.39757812 30.40019531 -150.70921875 29.71054688 -150 29 C-149.34 29 -148.68 29 -148 29 C-148.28875 28.27554688 -148.5775 27.55109375 -148.875 26.8046875 C-152.98241697 16.10828914 -152.98241697 16.10828914 -152 12 C-146.73913043 3.86956522 -146.73913043 3.86956522 -143 2 C-126.97280871 -0.06213048 -115.32956746 10.20657752 -103 19 C-102.20315781 16.23519906 -102.03081351 14.58401763 -102.25 11.625 C-101.91268071 6.73387026 -100.41687118 5.41687118 -97 2 C-91.49977814 -0.75011093 -83.96103159 0.74071011 -78.25 2.25 C-59.43536086 8.58898236 -41.67941518 19.71862436 -27 33 C-26.443125 31.2365625 -26.443125 31.2365625 -25.875 29.4375 C-15.06960002 -2.4737747 -15.06960002 -2.4737747 0 0 Z " fill="#498103" transform="translate(211,61)"/>
<path d="M0 0 C0.99 0 1.98 0 3 0 C3.43478723 13.94539777 2.20711812 27.23094838 0 41 C3.22192236 27.40308236 3.69843213 13.92877029 4 0 C5.93822596 0.03305502 7.87585668 0.10249905 9.8125 0.1875 C10.89144531 0.22230469 11.97039062 0.25710937 13.08203125 0.29296875 C16 1 16 1 17.84375 3.25 C18.9610185 5.90728723 19.47416452 7.95380456 19.6875 10.8125 C19.78611328 11.99779297 19.78611328 11.99779297 19.88671875 13.20703125 C19.94279297 14.09455078 19.94279297 14.09455078 20 15 C21.14855469 14.60167969 22.29710937 14.20335938 23.48046875 13.79296875 C47.98980944 5.38931234 47.98980944 5.38931234 60 6 C56.70784967 8.19476689 53.6618865 8.99741163 49.8828125 9.91015625 C49.18864227 10.08252304 48.49447205 10.25488983 47.77926636 10.43247986 C45.56249849 10.98134238 43.34379008 11.52187743 41.125 12.0625 C39.63919537 12.42982302 38.15351673 12.79765602 36.66796875 13.16601562 C25.01378389 16.04347811 25.01378389 16.04347811 20 17 C20 17.66 20 18.32 20 19 C20.81597656 18.69707031 21.63195312 18.39414063 22.47265625 18.08203125 C31.42895716 14.91467783 40.39152935 12.67894595 49.70141602 10.78833008 C55.20901201 9.65990034 60.52757335 8.31324028 65.87011719 6.55444336 C68.85297589 5.77795641 71.08547342 6.07588182 74 7 C74.99 7.66 75.98 8.32 77 9 C77.29296875 11.1640625 77.29296875 11.1640625 77.1875 13.625 C77.14689453 14.85089844 77.14689453 14.85089844 77.10546875 16.1015625 C77.07066406 16.72804688 77.03585937 17.35453125 77 18 C73.52127673 19.06395527 70.04200231 20.12609531 66.5625 21.1875 C65.5202124 21.50557617 64.4779248 21.82365234 63.40405273 22.15136719 C56.47896482 24.25962573 49.54510925 26.33280366 42.58227539 28.31323242 C37.9523775 29.65049279 33.49311779 31.26843301 29 33 C28.67 35.31 28.34 37.62 28 40 C28.56283691 39.74831055 29.12567383 39.49662109 29.70556641 39.23730469 C60.66854662 25.46896908 60.66854662 25.46896908 75 27 C75.33 27.33 75.66 27.66 76 28 C76.495 27.0925 76.99 26.185 77.5 25.25 C84.561459 14.84106736 103.65446614 13.2616742 114.9375 10.875 C117.28058637 10.37538071 119.62305957 9.87287521 121.96484375 9.3671875 C122.9818335 9.15175293 123.99882324 8.93631836 125.04663086 8.71435547 C128.06087948 8.03519219 128.06087948 8.03519219 131.14672852 6.91064453 C134.87343051 5.72123763 137.24952492 5.93854479 141 7 C143.23065136 9.59043384 143.90484032 11.3180223 144.375 14.6875 C144.189375 15.8321875 144.189375 15.8321875 144 17 C140.77893351 19.14737766 138.43170367 19.76706729 134.6875 20.6875 C127.00609656 22.6389604 119.48160512 25.01278261 111.94213867 27.44995117 C105.98288966 29.37629918 100.00616718 31.22510112 94 33 C94.99 35.97 94.99 35.97 96 39 C96.50225098 38.77860352 97.00450195 38.55720703 97.52197266 38.32910156 C129.09943403 24.49461769 129.09943403 24.49461769 141 27 C144.39560048 29.83166683 146.84281684 32.49104167 147.3125 37 C147 40 147 40 145.86328125 41.58984375 C143.31730672 43.51667143 140.99308233 43.91750661 137.875 44.5625 C136.71742188 44.80742188 135.55984375 45.05234375 134.3671875 45.3046875 C133.25601563 45.53414062 132.14484375 45.76359375 131 46 C129.3328293 46.39370503 127.66608157 46.78921114 126 47.1875 C122.94503613 47.86825622 120.1460445 48.20297061 117 48 C117 47.34 117 46.68 117 46 C115.64455078 46.433125 115.64455078 46.433125 114.26171875 46.875 C113.08222656 47.24625 111.90273438 47.6175 110.6875 48 C109.51574219 48.37125 108.34398437 48.7425 107.13671875 49.125 C104 50 104 50 101 50 C101 50.99 101 51.98 101 53 C101.9075 52.46375 102.815 51.9275 103.75 51.375 C104.8225 50.92125 105.895 50.4675 107 50 C109.203125 50.9140625 109.203125 50.9140625 111 52 C109.04350603 52.83764268 107.08474444 53.66999059 105.125 54.5 C104.03445313 54.9640625 102.94390625 55.428125 101.8203125 55.90625 C99 57 99 57 97 57 C97 59.97 97 62.94 97 66 C97.87624023 65.65743164 98.75248047 65.31486328 99.65527344 64.96191406 C102.96441988 63.66983764 106.2745912 62.38045455 109.58544922 61.09277344 C111.007406 60.53913089 112.42896853 59.98447452 113.85009766 59.42871094 C118.5555618 57.58903053 123.27044579 55.77686597 128 54 C129.12599609 53.57654297 130.25199219 53.15308594 131.41210938 52.71679688 C132.43626953 52.35134766 133.46042969 51.98589844 134.515625 51.609375 C135.82708496 51.13709473 135.82708496 51.13709473 137.16503906 50.65527344 C140.87033982 49.79882948 144.2003099 49.89549584 148 50 C147.98952637 48.86457764 147.97905273 47.72915527 147.96826172 46.55932617 C147.93207945 42.34939727 147.90910598 38.13948213 147.89013672 33.92944336 C147.88007509 32.10682871 147.8664244 30.28423021 147.84912109 28.46166992 C147.82487979 25.84289565 147.81351862 23.22433469 147.8046875 20.60546875 C147.79436493 19.78974899 147.78404236 18.97402924 147.77340698 18.1335907 C147.7726314 14.22869244 147.78349339 12.32475992 150 9 C150.66 9 151.32 9 152 9 C152.144375 8.360625 152.28875 7.72125 152.4375 7.0625 C153 5 153 5 154 4 C156.96331612 3.42179198 159.07834842 3.52106315 161.7890625 4.9296875 C173.27687629 13.67555397 183.45851274 33.37553822 188 47 C187.50745819 39.31933848 186.27569202 32.09104602 184.4375 24.625 C183.9727792 22.72258923 183.51296368 20.81897198 183.05859375 18.9140625 C182.85548584 18.0885791 182.65237793 17.2630957 182.44311523 16.41259766 C181.97037688 13.83871312 181.77646717 11.60976594 182 9 C184.34859152 5.98038234 185.86028106 4.27136165 189.625 3.375 C192 4 192 4 193.75 6.375 C194.36875 7.674375 194.36875 7.674375 195 9 C195.33 9.66 195.66 10.32 196 11 C196.33 10.01 196.66 9.02 197 8 C197.99 8.33 198.98 8.66 200 9 C203.37854542 27.54757502 206.20598073 45.86758151 206.90771484 64.72412109 C206.97047641 66.27190761 207.04683499 67.81918969 207.13525391 69.36572266 C207.26629457 71.68109214 207.35645464 73.99490467 207.4375 76.3125 C207.48406738 77.01181641 207.53063477 77.71113281 207.57861328 78.43164062 C207.63810244 81.22421213 207.50957286 83.36418293 205.7277832 85.58740234 C203.24287701 87.76843214 201.67591692 89 198.3125 89 C195.82088975 87.92254692 194.7149852 87.08168767 193 85 C192.32324219 82.80834961 192.32324219 82.80834961 191.796875 80.21484375 C189.88407992 72.66178735 186.07990423 66.26570442 182.25 59.5625 C181.55100646 58.31766136 180.85308455 57.07222036 180.15625 55.82617188 C175.85936236 48.16615786 171.44838038 40.57292135 167 33 C167.01110306 33.61530075 167.02220612 34.2306015 167.03364563 34.86454773 C167.14431497 41.27209956 167.2196988 47.67937968 167.2746582 54.08764648 C167.29979315 56.47870919 167.33390633 58.86969514 167.37719727 61.26049805 C167.43789061 64.69859764 167.46622072 68.13568096 167.48828125 71.57421875 C167.51408768 72.64210129 167.5398941 73.70998383 167.56648254 74.81022644 C167.56960612 83.08665797 167.56960612 83.08665797 164.53198242 86.15161133 C163.69642822 86.76157959 162.86087402 87.37154785 162 88 C161.67 88.33 161.34 88.66 161 89 C157.5625 89.1875 157.5625 89.1875 154 89 C152 87 152 87 151.8046875 83.9609375 C151.82789063 82.77757812 151.85109375 81.59421875 151.875 80.375 C151.89304687 79.18648438 151.91109375 77.99796875 151.9296875 76.7734375 C151.95289063 75.85820312 151.97609375 74.94296875 152 74 C136.0739844 77.44089149 121.06032375 81.79005127 106 88 C104.20318958 88.73641634 102.40501376 89.46951027 100.60546875 90.19921875 C99.80133545 90.52752686 98.99720215 90.85583496 98.16870117 91.1940918 C95.10412066 92.33291655 93.20817919 92.8020448 90 92 C86.30699632 89.35841619 84.31768756 86.5489864 83.40234375 82.0859375 C83.1540808 79.37952166 83.0098265 76.71702843 83 74 C73.22354156 76.59034369 63.53994489 79.38232991 53.9375 82.5625 C53.08260986 82.84295166 52.22771973 83.12340332 51.34692383 83.41235352 C46.35780632 85.08705291 41.63124293 87.00786151 36.91235352 89.34350586 C35 90 35 90 32 89 C31.01 89 30.02 89 29 89 C29.66 89.66 30.32 90.32 31 91 C30 92 30 92 26.4375 92.0625 C25.303125 92.041875 24.16875 92.02125 23 92 C22.731875 91.401875 22.46375 90.80375 22.1875 90.1875 C21.14679904 87.98111221 21.14679904 87.98111221 19.49560547 86.64208984 C14.69909217 81.37579071 15.42713908 70.15454377 14.875 63.375 C14.78863281 62.37082031 14.70226562 61.36664063 14.61328125 60.33203125 C14.40382717 57.88840034 14.19948243 55.44446159 14 53 C11.39972745 55.60027255 10.61057637 58.20892923 9.25 61.625 C6.84795326 67.41955978 4.20280372 72.32438086 0 77 C-0.8353125 77.93779297 -0.8353125 77.93779297 -1.6875 78.89453125 C-6.19983529 83.67881532 -10.58942185 87.40970763 -17.25 88.5625 C-20 88 -20 88 -21.6875 85.8125 C-22.120625 84.884375 -22.55375 83.95625 -23 83 C-24.75622997 79.81740305 -24.75622997 79.81740305 -27 77 C-27.16529801 74.73174393 -27.2798497 72.45977979 -27.375 70.1875 C-28.10190694 56.51324425 -30.34215007 43.16500589 -33.65063477 29.89111328 C-35.10396861 23.92524556 -35.77864302 18.12420984 -36 12 C-36.0515625 11.2059375 -36.103125 10.411875 -36.15625 9.59375 C-36.28272818 6.68475187 -36.28717044 4.52647913 -34.875 1.9375 C-31.92120382 0.46060191 -30.11164502 1.0665065 -27 2 C-19.92221461 6.44419082 -18.52915971 13.20687518 -16.75463867 20.91235352 C-16.38109253 22.59542603 -16.38109253 22.59542603 -16 24.3125 C-15.60808472 26.03907837 -15.60808472 26.03907837 -15.20825195 27.80053711 C-13.54578699 35.22898041 -12.04546023 42.66863297 -10.84960938 50.18676758 C-10.55622772 53.3722009 -10.55622772 53.3722009 -9 56 C-1.5235838 38.08696221 -1.07891067 19.10659764 0 0 Z " fill="#BEFC70" transform="translate(263,67)"/>
<path d="M0 0 C4.20991351 1.95809931 7.89320015 4.78640029 10 9 C10.22467831 10.53668865 10.40796805 12.07968054 10.5625 13.625 C10.64628906 14.44226563 10.73007813 15.25953125 10.81640625 16.1015625 C10.87699219 16.72804688 10.93757812 17.35453125 11 18 C11.99 17.505 11.99 17.505 13 17 C13.33 24.26 13.66 31.52 14 39 C16.97 39.99 16.97 39.99 20 41 C22.06520632 44.09780948 22.29477024 44.9540481 22.3125 48.5 C22.32925781 49.2734375 22.34601563 50.046875 22.36328125 50.84375 C22 53 22 53 20.44091797 54.33984375 C18.75675788 55.90876232 18.75675788 55.90876232 19.02661133 58.18554688 C19.2098999 59.02150391 19.39318848 59.85746094 19.58203125 60.71875 C19.77216797 61.65203125 19.96230469 62.5853125 20.15820312 63.546875 C20.37412109 64.52140625 20.59003906 65.4959375 20.8125 66.5 C24.14548382 81.89270763 24.14548382 81.89270763 23 89 C21.62817383 90.79882812 21.62817383 90.79882812 20 92 C17.625 92.1875 17.625 92.1875 15 91 C7.81556247 82.817121 3 67.73556449 3 57 C-0.3 57 -3.6 57 -7 57 C-7.12117187 57.72703125 -7.24234375 58.4540625 -7.3671875 59.203125 C-7.71903174 61.31419047 -8.07336801 63.42484153 -8.4296875 65.53515625 C-8.80768935 67.83164693 -9.16730585 70.13124494 -9.5078125 72.43359375 C-9.75144531 74.04427734 -9.75144531 74.04427734 -10 75.6875 C-10.144375 76.68136719 -10.28875 77.67523438 -10.4375 78.69921875 C-10.623125 79.45847656 -10.80875 80.21773438 -11 81 C-11.99 81.495 -11.99 81.495 -13 82 C-13.15490223 76.26861756 -12.65244885 71.10650794 -11.5 65.5 C-11.35691406 64.77296875 -11.21382812 64.0459375 -11.06640625 63.296875 C-10.71766302 61.52990929 -10.35980277 59.76474691 -10 58 C-10.44048083 59.99934561 -10.87713095 61.99953504 -11.3125 64 C-11.58835938 65.26457031 -11.86421875 66.52914062 -12.1484375 67.83203125 C-12.74851638 70.67461708 -13.26474658 73.51849838 -13.7265625 76.38671875 C-13.90578247 77.46276367 -13.90578247 77.46276367 -14.08862305 78.56054688 C-14.31763894 79.95675852 -14.5331101 81.35527308 -14.73364258 82.75585938 C-15.24692876 85.82554986 -15.69979065 87.68540562 -17.875 89.96484375 C-21.16933112 91.56961902 -23.52867934 90.8836089 -27 90 C-28.69140625 88.8359375 -28.69140625 88.8359375 -30 87 C-31.381446 77.19444211 -29.23632036 67.50436151 -27 58 C-27.61359375 57.88011719 -28.2271875 57.76023438 -28.859375 57.63671875 C-32.14627225 56.65904676 -33.22126982 54.85867351 -35 52 C-35 50.02 -35 48.04 -35 46 C-39.62 46 -44.24 46 -49 46 C-48.12988281 47.48886719 -48.12988281 47.48886719 -47.2421875 49.0078125 C-32.17094062 75.07638507 -32.17094062 75.07638507 -34 87 C-35 88 -35 88 -37.28515625 88.09765625 C-38.20167969 88.08605469 -39.11820312 88.07445312 -40.0625 88.0625 C-41.44115234 88.04896484 -41.44115234 88.04896484 -42.84765625 88.03515625 C-43.91306641 88.01775391 -43.91306641 88.01775391 -45 88 C-49.1351025 79.25952844 -52.99820797 70.42292941 -56.75170898 61.51293945 C-57.81661524 59.00042256 -58.90296444 56.49863486 -60 54 C-60.33451172 53.21447754 -60.66902344 52.42895508 -61.01367188 51.61962891 C-62.07862626 49.1711992 -62.07862626 49.1711992 -64 46 C-66.83381478 44.99577075 -68.93748772 45 -72 45 C-71.86722656 45.54527344 -71.73445313 46.09054688 -71.59765625 46.65234375 C-69.51083588 55.56321907 -68.11304422 64.82977926 -69 74 C-69.66 74.99 -70.32 75.98 -71 77 C-71.99 66.605 -71.99 66.605 -73 56 C-72.96519531 58.13082031 -72.93039063 60.26164062 -72.89453125 62.45703125 C-72.87113086 64.52220317 -72.85291715 66.58736028 -72.83520508 68.65258789 C-72.82012411 70.08722552 -72.7996562 71.52181708 -72.77368164 72.95629883 C-72.73726563 75.01915859 -72.72026757 77.08140858 -72.70703125 79.14453125 C-72.6913208 80.38565674 -72.67561035 81.62678223 -72.65942383 82.90551758 C-73 86 -73 86 -74.3659668 87.93237305 C-76 89 -76 89 -78.4375 88.9375 C-81.55306403 87.7976595 -82.87970131 86.54212538 -85 84 C-85.69775391 81.45727539 -85.69775391 81.45727539 -85.9765625 78.59765625 C-86.08895264 77.54763428 -86.20134277 76.4976123 -86.31713867 75.41577148 C-86.41873291 74.30919189 -86.52032715 73.2026123 -86.625 72.0625 C-86.86173496 69.80452485 -87.10000244 67.54670981 -87.33984375 65.2890625 C-87.45054199 64.2052832 -87.56124023 63.12150391 -87.67529297 62.00488281 C-88.25514368 56.63886586 -89.10077844 51.3212758 -90 46 C-93.12241798 46 -94.65688111 48.06692692 -97 50 C-100.2507611 51.62538055 -103.80735693 51.14277895 -107.375 51.125 C-108.52742188 51.13080078 -108.52742188 51.13080078 -109.703125 51.13671875 C-110.44820312 51.13542969 -111.19328125 51.13414063 -111.9609375 51.1328125 C-112.97873291 51.13112061 -112.97873291 51.13112061 -114.01708984 51.12939453 C-116.11235417 50.99266834 -117.98229148 50.56770955 -120 50 C-119.87882812 50.58378418 -119.75765625 51.16756836 -119.6328125 51.76904297 C-119.07841606 54.46906023 -118.53916256 57.1719012 -118 59.875 C-117.80921875 60.7928125 -117.6184375 61.710625 -117.421875 62.65625 C-114.09144796 79.54627283 -114.09144796 79.54627283 -119 87 C-120.75964 89.39950909 -121.50553906 89.89857211 -124.4375 90.5 C-127 90 -127 90 -129.06738281 87.96679688 C-131.39393428 84.3952641 -131.97702083 81.17185898 -132.484375 77.03125 C-132.58969543 76.27332153 -132.69501587 75.51539307 -132.80352783 74.73449707 C-133.13419102 72.32476812 -133.44196321 69.91271379 -133.75 67.5 C-133.97124652 65.87871325 -134.19388906 64.25761635 -134.41796875 62.63671875 C-136.14549157 49.88947063 -136.14549157 49.88947063 -136 45 C-137.32 44.34 -138.64 43.68 -140 43 C-139.01 42.505 -139.01 42.505 -138 42 C-138.54269531 41.74605469 -139.08539063 41.49210937 -139.64453125 41.23046875 C-140.35996094 40.88628906 -141.07539063 40.54210937 -141.8125 40.1875 C-142.52019531 39.85105469 -143.22789062 39.51460937 -143.95703125 39.16796875 C-146.04799459 37.97256141 -147.48546281 36.87033323 -149 35 C-148.85696678 32.1393355 -148.36819947 30.50846593 -146.6875 28.1875 C-145 27 -145 27 -141 27 C-141.37253906 25.97519531 -141.74507813 24.95039062 -142.12890625 23.89453125 C-142.60741019 22.53407887 -143.08523938 21.17338904 -143.5625 19.8125 C-143.80935547 19.13896484 -144.05621094 18.46542969 -144.31054688 17.77148438 C-145.68692374 13.79743851 -146.38931161 11.02396472 -145 7 C-142.92691848 3.4917082 -141.7055673 2.2351891 -137.8125 0.9375 C-132.70844635 1.02117301 -129.44219269 2.6053805 -125 5 C-124.0925 5.47566406 -123.185 5.95132813 -122.25 6.44140625 C-114.93769614 10.47678671 -108.50098327 15.30991728 -102.03125 20.546875 C-99.72565559 22.41274264 -97.37280966 24.22039275 -95 26 C-95.495 20.555 -95.495 20.555 -96 15 C-95.34 15 -94.68 15 -94 15 C-94.495 13.6696875 -94.495 13.6696875 -95 12.3125 C-95.92961974 9.2331346 -96.42804911 7.1675634 -96 4 C-94.45944386 2.01374837 -93.43439307 1.12496239 -91.00390625 0.42578125 C-71.75638664 -0.46730366 -47.32986153 14.99012364 -33.39453125 27.43359375 C-32.22719505 28.58723686 -31.10900518 29.79017616 -30 31 C-29.401875 31.495 -28.80375 31.99 -28.1875 32.5 C-26.48964646 34.6446571 -26.78513036 36.34994106 -27 39 C-25.35 38.67 -23.7 38.34 -22 38 C-21.90203125 37.35675781 -21.8040625 36.71351562 -21.703125 36.05078125 C-19.67562733 23.79840311 -16.4285195 11.5999273 -9.125 1.375 C-5.95209249 -0.6780578 -3.69775137 -0.45410982 0 0 Z " fill="#BEFC6F" transform="translate(210,66)"/>
<path d="M0 0 C0.33 0 0.66 0 1 0 C1 12.21 1 24.42 1 37 C-2.63 37.66 -6.26 38.32 -10 39 C-13.26188239 39.99537313 -16.42852987 41.02305539 -19.625 42.1875 C-20.47312256 42.48922119 -21.32124512 42.79094238 -22.19506836 43.10180664 C-28.7872415 45.47847631 -35.27682515 48.08245545 -41.70751953 50.8659668 C-44.64625264 52.12340896 -46.76633568 53 -50 53 C-50 50.03 -50 47.06 -50 44 C-46.04 42.02 -42.08 40.04 -38 38 C-39.98 38.66 -41.96 39.32 -44 40 C-45.485 40.495 -45.485 40.495 -47 41 C-46.71826172 39.0949707 -46.71826172 39.0949707 -46 37 C-43.32688267 35.83686505 -40.90647526 34.97356909 -38.125 34.1875 C-37.39152344 33.95869141 -36.65804688 33.72988281 -35.90234375 33.49414062 C-30.41774892 31.86075036 -30.41774892 31.86075036 -27 33 C-27.99 33.495 -27.99 33.495 -29 34 C-23.74851867 33.27852832 -18.53162825 32.42560483 -13.3125 31.5 C-12.56677734 31.36980469 -11.82105469 31.23960938 -11.05273438 31.10546875 C-7.66215215 30.50659696 -4.34236814 29.83559203 -1 29 C-0.67 19.43 -0.34 9.86 0 0 Z " fill="#4C8605" transform="translate(410,80)"/>
<path d="M0 0 C1.87620422 3.16609462 2.09662822 5.35832401 2 9 C1.0721167 9.12193726 1.0721167 9.12193726 0.12548828 9.24633789 C-8.36501194 10.55726865 -16.13811914 13.39323085 -24.125 16.4375 C-26.09301759 17.17823255 -28.06200802 17.91632764 -30.03118896 18.65396118 C-31.89534392 19.35237286 -33.75871829 20.0528669 -35.62207031 20.75341797 C-39.72038467 22.26584881 -43.84302361 23.65830631 -48 25 C-48.33 22.36 -48.66 19.72 -49 17 C-36.21873919 10.35747613 -24.45463876 5.82382115 -10.17163086 3.39379883 C-9.28999268 3.24064209 -8.40835449 3.08748535 -7.5 2.9296875 C-6.7059375 2.79804199 -5.911875 2.66639648 -5.09375 2.53076172 C-2.71703432 2.05202708 -2.71703432 2.05202708 0 0 Z " fill="#4A8303" transform="translate(342,108)"/>
<path d="M0 0 C0.99 0.33 1.98 0.66 3 1 C7.57105251 26.0942133 10.29077413 50.476493 10 76 C9.01 76.495 9.01 76.495 8 77 C7.84966309 75.41638672 7.84966309 75.41638672 7.69628906 73.80078125 C5.2668157 47.56223626 5.2668157 47.56223626 1.30761719 21.5234375 C-1.72007467 5.16022401 -1.72007467 5.16022401 0 0 Z " fill="#AAE75D" transform="translate(460,75)"/>
<path d="M0 0 C20.7205799 10.009314 20.7205799 10.009314 27 15 C27.33 15.99 27.66 16.98 28 18 C7.16634872 18.69019458 7.16634872 18.69019458 3 15 C0.89376224 10.15838853 0 5.26691923 0 0 Z " fill="#498104" transform="translate(83,86)"/>
<path d="M0 0 C0 0.66 0 1.32 0 2 C0.99 2.33 1.98 2.66 3 3 C2.32646484 3.16081055 1.65292969 3.32162109 0.95898438 3.48730469 C-5.64134663 5.06427539 -12.23981935 6.64880274 -18.83691406 8.23925781 C-21.50219043 8.88027365 -24.16876628 9.51537351 -26.8359375 10.1484375 C-34.42073851 11.97020746 -41.74668636 14.1109683 -49 17 C-49.33 16.01 -49.66 15.02 -50 14 C-35.34124377 6.08686611 -16.85306384 0 0 0 Z " fill="#518A09" transform="translate(392,72)"/>
<path d="M0 0 C0.99 0 1.98 0 3 0 C3.51270907 11.43626059 2.80850879 22.52297617 1.3125 33.875 C1.16393555 35.07342529 1.01537109 36.27185059 0.86230469 37.5065918 C-0.49550088 47.16069568 -2.67623185 57.29819608 -9 65 C-8.814375 63.88625 -8.62875 62.7725 -8.4375 61.625 C-7.68319343 58.17431139 -7.68319343 58.17431139 -9 56 C-8.328125 53.9609375 -8.328125 53.9609375 -7.25 51.375 C-1.14586085 34.95697055 -0.97708423 17.3033372 0 0 Z " fill="#9BD74E" transform="translate(263,67)"/>
<path d="M0 0 C10.32208151 0.68813877 20.38196423 6.57795166 29 12 C29.33 12.66 29.66 13.32 30 14 C18.06637522 13.61934211 18.06637522 13.61934211 13 9 C9.79019864 8.66486406 9.79019864 8.66486406 7 9 C7 9.66 7 10.32 7 11 C6.01 11 5.02 11 4 11 C3.67 8.03 3.34 5.06 3 2 C2.01 2 1.02 2 0 2 C0 1.34 0 0.68 0 0 Z " fill="#4E8706" transform="translate(130,84)"/>
<path d="M0 0 C-3.37138742 2.24759162 -6.00494139 2.87079862 -9.94140625 3.8046875 C-11.34441179 4.14448688 -12.74740621 4.48433216 -14.15039062 4.82421875 C-16.34591505 5.34841392 -18.54200119 5.87014726 -20.73852539 6.39013672 C-28.45212102 8.22433411 -35.94766579 10.05691473 -43.19506836 13.36767578 C-43.7906958 13.57634277 -44.38632324 13.78500977 -45 14 C-45.66 13.67 -46.32 13.34 -47 13 C-37.15737457 7.68672432 -27.07587047 4.40540219 -16.25 1.75 C-15.55318115 1.57460693 -14.8563623 1.39921387 -14.13842773 1.21850586 C-9.32284751 0.08693866 -4.94588769 -0.15525208 0 0 Z " fill="#A0DC53" transform="translate(389,73)"/>
<path d="M0 0 C-3.29215033 2.19476689 -6.3381135 2.99741163 -10.1171875 3.91015625 C-10.81135773 4.08252304 -11.50552795 4.25488983 -12.22073364 4.43247986 C-14.43750151 4.98134238 -16.65620992 5.52187743 -18.875 6.0625 C-20.36080463 6.42982302 -21.84648327 6.79765602 -23.33203125 7.16601562 C-34.98621611 10.04347811 -34.98621611 10.04347811 -40 11 C-40 10.34 -40 9.68 -40 9 C-12.2521527 -0.62299082 -12.2521527 -0.62299082 0 0 Z " fill="#AAE75C" transform="translate(323,73)"/>
<path d="M0 0 C0.33 0 0.66 0 1 0 C2.32 9.24 3.64 18.48 5 28 C5.33 28 5.66 28 6 28 C6 33.61 6 39.22 6 45 C5.01 45.495 5.01 45.495 4 46 C3.42571424 40.5744506 2.85620641 35.14842822 2.29101562 29.72192383 C2.09830085 27.87803795 1.90430788 26.03428518 1.70898438 24.19067383 C1.4275801 21.53240843 1.15085849 18.87368968 0.875 16.21484375 C0.78750488 15.39789536 0.70000977 14.58094696 0.60986328 13.73924255 C0.13680942 9.1300906 -0.08665599 4.63338747 0 0 Z " fill="#83BE38" transform="translate(464,106)"/>
<path d="M0 0 C-2.52841884 2.52841884 -4.2310128 2.66689504 -7.71484375 3.40234375 C-9.45797852 3.77842773 -9.45797852 3.77842773 -11.23632812 4.16210938 C-12.45771484 4.41798828 -13.67910156 4.67386719 -14.9375 4.9375 C-23.36727267 6.72785367 -31.71425312 8.62251651 -40 11 C-40 10.34 -40 9.68 -40 9 C-30.98355048 6.0030189 -21.92205413 3.36994782 -12.6875 1.125 C-11.77460205 0.8978833 -10.8617041 0.6707666 -9.92114258 0.43676758 C-9.06415771 0.2333374 -8.20717285 0.02990723 -7.32421875 -0.1796875 C-6.1808606 -0.45401611 -6.1808606 -0.45401611 -5.0144043 -0.73388672 C-3 -1 -3 -1 0 0 Z " fill="#508A09" transform="translate(323,75)"/>
<path d="M0 0 C0.33 0 0.66 0 1 0 C1.66 5.94 2.32 11.88 3 18 C0.69 18 -1.62 18 -4 18 C-3.48914188 11.56318772 -2.27057103 6.04057576 0 0 Z " fill="#548E0C" transform="translate(207,88)"/>
<path d="M0 0 C-0.27514648 1.89355469 -0.27514648 1.89355469 -1 4 C-3.71444961 5.28501632 -6.23444538 6.30329 -9.0625 7.25 C-9.82111328 7.518125 -10.57972656 7.78625 -11.36132812 8.0625 C-13.23588042 8.72271967 -15.11734572 9.36325109 -17 10 C-17 9.34 -17 8.68 -17 8 C-17.66 8 -18.32 8 -19 8 C-18.67 7.01 -18.34 6.02 -18 5 C-15.52665762 3.95222369 -13.17972108 3.09838539 -10.625 2.3125 C-9.93921875 2.08755859 -9.2534375 1.86261719 -8.546875 1.63085938 C-5.59234644 0.68529527 -3.1196449 0 0 0 Z " fill="#AFEC61" transform="translate(316,112)"/>
<path d="M0 0 C0.99 0 1.98 0 3 0 C3.0271045 3.04172719 3.04688964 6.08320997 3.0625 9.125 C3.07087891 9.9809375 3.07925781 10.836875 3.08789062 11.71875 C3.10538306 16.26678411 2.93192358 20.52383164 2 25 C1.34 25 0.68 25 0 25 C0 16.75 0 8.5 0 0 Z " fill="#B7F569" transform="translate(263,67)"/>
<path d="M0 0 C3.2926882 0.08064635 6.58349221 0.19350279 9.875 0.3125 C10.81214844 0.33505859 11.74929687 0.35761719 12.71484375 0.38085938 C14.05869141 0.4340332 14.05869141 0.4340332 15.4296875 0.48828125 C16.25710449 0.51446533 17.08452148 0.54064941 17.93701172 0.56762695 C20 1 20 1 22 4 C14.74 4 7.48 4 0 4 C0 2.68 0 1.36 0 0 Z " fill="#9BD84F" transform="translate(89,113)"/>
<path d="M0 0 C-0.99 0.495 -0.99 0.495 -2 1 C-1.34 1.66 -0.68 2.32 0 3 C-6.29584352 5.01466993 -6.29584352 5.01466993 -10 4.9375 C-13.95927912 5.01998498 -16.44472145 6.2934663 -20 8 C-19.71826172 6.0949707 -19.71826172 6.0949707 -19 4 C-16.32688267 2.83686505 -13.90647526 1.97356909 -11.125 1.1875 C-10.39152344 0.95869141 -9.65804688 0.72988281 -8.90234375 0.49414062 C-3.41774892 -1.13924964 -3.41774892 -1.13924964 0 0 Z " fill="#98D54C" transform="translate(383,113)"/>
<path d="M0 0 C0.66 0 1.32 0 2 0 C1.48117215 5.18827855 0.84568781 10.34452749 0.0625 15.5 C-0.09089844 16.5209375 -0.24429688 17.541875 -0.40234375 18.59375 C-0.59957031 19.3878125 -0.79679688 20.181875 -1 21 C-1.66 21.33 -2.32 21.66 -3 22 C-3.45755719 14.37404682 -1.74536299 7.3970146 0 0 Z " fill="#B4F266" transform="translate(200,126)"/>
<path d="M0 0 C1.32 0 2.64 0 4 0 C4 0.66 4 1.32 4 2 C4.99 2.33 5.98 2.66 7 3 C1.06 4.32 -4.88 5.64 -11 7 C-11 6.01 -11 5.02 -11 4 C-7.37 3.01 -3.74 2.02 0 1 C0 0.67 0 0.34 0 0 Z " fill="#5E9816" transform="translate(388,72)"/>
<path d="M0 0 C-6.28663076 4.19108718 -14.52067355 5.50995408 -22 5 C-15.79214104 -0.19694614 -7.79575305 -0.28873159 0 0 Z " fill="#A9E65C" transform="translate(389,73)"/>
<path d="M0 0 C0 0.66 0 1.32 0 2 C-8.261959 5.62870159 -8.261959 5.62870159 -13 4 C-4.66666667 -1.55555556 -4.66666667 -1.55555556 0 0 Z " fill="#8FCB43" transform="translate(369,153)"/>
<path d="M0 0 C1.96177393 2.94266089 2.36742347 4.12432473 2.75 7.5 C2.84796875 8.2734375 2.9459375 9.046875 3.046875 9.84375 C3 12 3 12 1 15 C-0.42705634 9.69276568 -1.4002792 5.46108889 0 0 Z " fill="#9BD74E" transform="translate(79,138)"/>
<path d="M0 0 C0.33 0 0.66 0 1 0 C1 5.61 1 11.22 1 17 C0.34 17.33 -0.32 17.66 -1 18 C-1.87557031 11.45688671 -2.3548854 6.23352019 0 0 Z " fill="#8BC740" transform="translate(469,134)"/>
<path d="M0 0 C-1.95649397 0.83764268 -3.91525556 1.66999059 -5.875 2.5 C-7.51082031 3.19609375 -7.51082031 3.19609375 -9.1796875 3.90625 C-12 5 -12 5 -14 5 C-13 2 -13 2 -11.07421875 1.015625 C-9.89279297 0.63664062 -9.89279297 0.63664062 -8.6875 0.25 C-7.51767578 -0.14445312 -7.51767578 -0.14445312 -6.32421875 -0.546875 C-3.83078909 -1.03298902 -2.3818103 -0.80665429 0 0 Z " fill="#5F9917" transform="translate(311,115)"/>
<path d="M0 0 C0.66 0.66 1.32 1.32 2 2 C1.7578125 4.1640625 1.7578125 4.1640625 1.125 6.625 C0.92132813 7.44226563 0.71765625 8.25953125 0.5078125 9.1015625 C0.34023438 9.72804688 0.17265625 10.35453125 0 11 C-0.99 11 -1.98 11 -3 11 C-2.01 7.37 -1.02 3.74 0 0 Z " fill="#AAE75C" transform="translate(257,114)"/>
<path d="M0 0 C4.64891954 -0.32434322 7.22406608 0.223578 11 3 C11 3.33 11 3.66 11 4 C6.35108046 4.32434322 3.77593392 3.776422 0 1 C0 0.67 0 0.34 0 0 Z " fill="#66A11D" transform="translate(62,105)"/>
<path d="M0 0 C-3.51113888 2.34075925 -5.8195491 2.70663502 -10 3 C-12.4375 2.0625 -12.4375 2.0625 -14 1 C-9.32798795 -0.20568053 -4.78503708 -0.09382426 0 0 Z " fill="#9BD74E" transform="translate(323,73)"/>
<path d="M0 0 C-0.33 1.32 -0.66 2.64 -1 4 C-3.31 4.33 -5.62 4.66 -8 5 C-7.67 4.34 -7.34 3.68 -7 3 C-6.34 3 -5.68 3 -5 3 C-5 2.34 -5 1.68 -5 1 C-3 0 -3 0 0 0 Z " fill="#A9E65C" transform="translate(316,112)"/>
<path d="M0 0 C-3.96 0.99 -7.92 1.98 -12 3 C-12 2.34 -12 1.68 -12 1 C-10.75835303 0.43945064 -9.50616116 -0.09777907 -8.25 -0.625 C-7.55390625 -0.92664063 -6.8578125 -1.22828125 -6.140625 -1.5390625 C-4 -2 -4 -2 0 0 Z " fill="#A0DD53" transform="translate(295,81)"/>
<path d="M0 0 C1.65 0 3.3 0 5 0 C5 3.96 5 7.92 5 12 C4.67 12 4.34 12 4 12 C3.81824219 10.95199219 3.81824219 10.95199219 3.6328125 9.8828125 C3.46523438 8.97273437 3.29765625 8.06265625 3.125 7.125 C2.96257812 6.22007812 2.80015625 5.31515625 2.6328125 4.3828125 C2.16955297 1.83494012 2.16955297 1.83494012 0 0 Z " fill="#7CB731" transform="translate(410,141)"/>
<path d="M0 0 C2 1 2 1 2.625 2.5625 C3.16368951 6.06398181 3.05903219 9.45806833 3 13 C2.67 13 2.34 13 2 13 C2 11.02 2 9.04 2 7 C1.34 7 0.68 7 0 7 C0 4.69 0 2.38 0 0 Z " fill="#ADEA5F" transform="translate(466,111)"/>
<path d="M0 0 C0.33 0.66 0.66 1.32 1 2 C-1.39509338 4.89932357 -3.31245243 5.50168276 -7 6 C-6.67 5.34 -6.34 4.68 -6 4 C-5.34 4 -4.68 4 -4 4 C-4 3.34 -4 2.68 -4 2 C-2.68 1.34 -1.36 0.68 0 0 Z " fill="#A8E55A" transform="translate(302,151)"/>
<path d="M0 0 C-2.85306797 2.32472205 -5.54074837 3.7508258 -9 5 C-8.6875 3.0625 -8.6875 3.0625 -8 1 C-5.07175348 0.02391783 -3.04386724 -0.08226668 0 0 Z " fill="#5F9916" transform="translate(372,116)"/>
<path d="M0 0 C0.33 0 0.66 0 1 0 C1 2.64 1 5.28 1 8 C0.01 8 -0.98 8 -2 8 C-1.125 1.125 -1.125 1.125 0 0 Z " fill="#9AD64D" transform="translate(222,83)"/>
<path d="M0 0 C0.9075 0.226875 1.815 0.45375 2.75 0.6875 C-0.8941774 3.1169516 -2.96241272 2.84929575 -7.25 2.6875 C-4.61280971 0.1517401 -3.74095095 -0.35970682 0 0 Z " fill="#AFEC61" transform="translate(374.25,75.3125)"/>
</svg>
